<svg xmlns="http://www.w3.org/2000/svg" viewBox="200 0 592 100" fill="#a157fc">
<path class="progress-container" fill="none" stroke="#a157fc" stroke-width="13" stroke-miterlimit="10" d="M742.742,93.5H50C26.075,93.5,6.5,73.925,6.5,50v0
	C6.5,26.075,26.075,6.5,50,6.5h692.742c23.925,0,43.5,19.575,43.5,43.5v0C786.242,73.925,766.667,93.5,742.742,93.5z"/>
<path class="progress-fill" d="M507.19,76.853H51.724c-14.769,0-26.853-12.084-26.853-26.853v0c0-14.769,12.084-26.853,26.853-26.853H507.19
	c14.769,0,26.853,12.084,26.853,26.853v0C534.043,64.769,521.959,76.853,507.19,76.853z"/>
</svg>
