<svg xmlns="http://www.w3.org/2000/svg" fill="#3da1ff"  viewBox="0 -16 360 126">
  <path class="pattern-tabs-tab-1" d="M240,55c0,3.3-2.7,6-6,6h-60c-3.3,0-6-2.7-6-6V6c0-3.3,2.7-6,6-6h60c3.3,0,6,2.7,6,6V55z"/>
  <path d="M514,170H12c-5.8,0-12-6.2-12-12V9c0-5.3,4.9-9,12-9h134c5.8,0,9,3.2,9,9v43h359c5.8,0,9,3.2,9,9v97
  	C523,165.1,519.3,170,514,170z M9,9.5V158c0.1,0.9,2.1,3,3,3h501.4c0.2-1,0.5-1.6,0.5-3V61H150.5c-2.5,0-4.5-2-4.5-4.5V9H12
  	C10.6,9,9.5,9.3,9,9.5z"/>
  <path d="M326,55c0,3.3-2.7,6-6,6h-60c-3.3,0-6-2.7-6-6V6c0-3.3,2.7-6,6-6h60c3.3,0,6,2.7,6,6V55z"/>
</svg>
