<svg xmlns="http://www.w3.org/2000/svg" width="442px" height="90px" viewBox="0 0 442 90" fill="#ff4653">
	<path d="M80,90H10C4.5,90,0,85.5,0,80V10C0,4.5,4.5,0,10,0h70c5.5,0,10,4.5,10,10v70C90,85.5,85.5,90,80,90z M10,8
		c-1.1,0-2,0.9-2,2v70c0,1.1,0.9,2,2,2h70c1.1,0,2-0.9,2-2V10c0-1.1-0.9-2-2-2H10z"/>
	<path class="pattern-buttons-1" d="M432,90H110c-5.5,0-10-4.5-10-10V10c0-5.5,4.5-10,10-10h322c5.5,0,10,4.5,10,10v70C442,85.5,437.5,90,432,90z M110,8
		c-1.1,0-2,0.9-2,2v70c0,1.1,0.9,2,2,2h322c1.1,0,2-0.9,2-2V10c0-1.1-0.9-2-2-2H110z"/>
	<path d="M54.4,59c-0.3,0-0.6-0.3-0.9-0.5l-7.4-4l-7.4,3.8c-0.6,0.3-1.4,0.2-1.9-0.2c-0.6-0.4-0.8-1.1-0.7-1.8l1.4-8.3l-6-5.9
			C31,41.7,30.8,41,31,40.4c0.2-0.7,0.8-1.1,1.5-1.2l8.3-1.2l3.7-7.5c0.3-0.6,0.9-1,1.6-1c0.7,0,1.3,0.4,1.6,1l3.7,7.5l8.3,1.2
			c0.7,0.1,1.3,0.6,1.5,1.2c0.2,0.7,0,1.4-0.5,1.9l-6,5.9l1.4,8c0.1,0.2,0.1,0.6,0.1,0.8C56.2,57.9,55.4,59,54.4,59
			C54.4,59,54.4,59,54.4,59z"/>
	<path class="pattern-buttons-1" d="M334.1,39.9l-17.3-17.3c-1.2-1.2-3.1-1.2-4.2,0c-1.2,1.2-1.2,3.1,0,4.2L324.8,40H250c-1.7,0-3,1.3-3,3s1.3,3,3,3h74.4
		l-11.9,11.9c-1.2,1.2-1.2,3.1,0,4.2c0.6,0.6,1.4,0.9,2.1,0.9s1.5-0.3,2.1-0.9l15.3-15.3c0.7-0.3,1.3-0.9,1.6-1.6l0.3-0.3
		c0.7-0.7,0.9-1.6,0.8-2.5C335.1,41.5,334.8,40.5,334.1,39.9z"/>
</svg>
