<svg viewBox="0 0 48 48" xmlns="http://www.w3.org/2000/svg" class="h-20 w-20 sm:w-24 sm:h-24 block mr-4 -ml-4"><defs><linearGradient x1="0%" y1="0%" y2="100%" id="a"><stop stop-color="#2383AE" offset="0%"></stop><stop stop-color="#6DD7B9" offset="100%"></stop></linearGradient></defs><path d="M10 8c1.333-5.333 4.667-8 10-8 8 0 9 6 13 7 2.667.667 5-.333 7-3-1.333 5.333-4.667 8-10 8-8 0-9-6-13-7-2.667-.667-5 .333-7 3zM0 20c1.333-5.333 4.667-8 10-8 8 0 9 6 13 7 2.667.667 5-.333 7-3-1.333 5.333-4.667 8-10 8-8 0-9-6-13-7-2.667-.667-5 .333-7 3z" transform="translate(4 12)" fill="url(#a)" fill-rule="nonzero"></path></svg>