<svg xmlns="http://www.w3.org/2000/svg" viewBox="20 0 330 240" fill="#ff712b">
	<path d="M332,90H73c-5.5,0-10-4.5-10-10V10c0-5.5,4.5-10,10-10h259c5.5,0,10,4.5,10,10v70C342,85.5,337.5,90,332,90z M73,8
		c-1.1,0-2,0.9-2,2v70c0,1.1,0.9,2,2,2h259c1.1,0,2-0.9,2-2V10c0-1.1-0.9-2-2-2H73z"/>
  <polygon points="300.6,34.5 285.8,53.9 271,34.5 "/>
	<path d="M37,90h-259c-5.5,0-10-4.5-10-10V10c0-5.5,4.5-10,10-10H37c5.5,0,10,4.5,10,10v70C47,85.5,42.5,90,37,90z M-222,8
		c-1.1,0-2,0.9-2,2v70c0,1.1,0.9,2,2,2H37c1.1,0,2-0.9,2-2V10c0-1.1-0.9-2-2-2H-222z"/>
  <polygon points="5.6,34.5 -9.2,53.9 -24,34.5 "/>
  <path class="pattern-dropdown-1" d="M342,127c0,6.6-5.4,12-12,12H75c-6.6,0-12-5.4-12-12v-15c0-6.6,5.4-12,12-12h255c6.6,0,12,5.4,12,12V127z"/>
  <path class="pattern-dropdown-2" d="M342,173.5c0,6.6-5.4,12-12,12H75c-6.6,0-12-5.4-12-12v-15c0-6.6,5.4-12,12-12h255c6.6,0,12,5.4,12,12V173.5z"/>
  <path class="pattern-dropdown-3" d="M342,220c0,6.6-5.4,12-12,12H75c-6.6,0-12-5.4-12-12v-15c0-6.6,5.4-12,12-12h255c6.6,0,12,5.4,12,12V220z"/>
</svg>
