<svg xmlns="http://www.w3.org/2000/svg" viewBox="0 0 708.637 131.352"  stroke="#e1e04b" stroke-width="8" stroke-miterlimit="10">

<g fill="#e1e04b">
<path class="star-1" d="M101.516,126.352
	c-2.01,0-4-0.636-5.69-1.881l-27.515-20.323l-27.52,20.323c-1.694,1.244-3.689,1.881-5.69,1.881c-1.971,0-3.943-0.617-5.623-1.842
	c-3.383-2.445-4.785-6.805-3.46-10.767l10.815-32.458L9.009,61.389c-3.397-2.436-4.828-6.776-3.541-10.748
	c1.282-3.948,4.962-6.613,9.111-6.613c0.019,0,0.048,0,0.067,0l34.214,0.273l10.322-32.616C60.435,7.708,64.134,5,68.302,5
	s7.872,2.708,9.116,6.685l10.317,32.616l34.195-0.273c0.019,0,0.072,0,0.091,0c4.13,0,7.833,2.665,9.087,6.613
	c1.297,3.976-0.115,8.312-3.517,10.748L99.779,81.285l10.829,32.458c1.306,3.953-0.096,8.312-3.45,10.767
	C105.473,125.735,103.487,126.352,101.516,126.352L101.516,126.352z"/>
<path class="star-2" d="M244.529,126.352
	c-2.01,0-4-0.636-5.69-1.881l-27.515-20.323l-27.52,20.323c-1.694,1.244-3.689,1.881-5.69,1.881c-1.971,0-3.943-0.617-5.623-1.842
	c-3.383-2.445-4.785-6.805-3.46-10.767l10.815-32.458l-27.826-19.897c-3.397-2.436-4.828-6.776-3.541-10.748
	c1.282-3.948,4.962-6.613,9.111-6.613c0.019,0,0.048,0,0.067,0l34.214,0.273l10.322-32.616C203.449,7.708,207.148,5,211.315,5
	s7.872,2.708,9.116,6.685l10.317,32.616l34.195-0.273c0.019,0,0.072,0,0.091,0c4.13,0,7.833,2.665,9.087,6.613
	c1.297,3.976-0.115,8.312-3.517,10.748l-27.811,19.897l10.829,32.458c1.306,3.953-0.096,8.312-3.45,10.767
	C248.487,125.735,246.501,126.352,244.529,126.352L244.529,126.352z"/>
<path class="star-3" d="M387.543,126.352
	c-2.01,0-4-0.636-5.69-1.881l-27.515-20.323l-27.52,20.323c-1.694,1.244-3.689,1.881-5.69,1.881c-1.971,0-3.943-0.617-5.623-1.842
	c-3.383-2.445-4.785-6.805-3.46-10.767l10.815-32.458l-27.826-19.897c-3.397-2.436-4.828-6.776-3.541-10.748
	c1.282-3.948,4.962-6.613,9.111-6.613c0.019,0,0.048,0,0.067,0l34.214,0.273l10.322-32.616C346.462,7.708,350.161,5,354.329,5
	s7.872,2.708,9.116,6.685l10.317,32.616l34.195-0.273c0.019,0,0.072,0,0.091,0c4.13,0,7.833,2.665,9.087,6.613
	c1.297,3.976-0.115,8.312-3.517,10.748l-27.811,19.897l10.829,32.458c1.306,3.953-0.096,8.312-3.45,10.767
	C391.5,125.735,389.514,126.352,387.543,126.352L387.543,126.352z"/>
<path class="star-4" d="M530.556,126.352
	c-2.01,0-4-0.636-5.69-1.881l-27.515-20.323l-27.52,20.323c-1.694,1.244-3.689,1.881-5.69,1.881c-1.971,0-3.943-0.617-5.623-1.842
	c-3.383-2.445-4.785-6.805-3.46-10.767l10.815-32.458l-27.826-19.897c-3.397-2.436-4.828-6.776-3.541-10.748
	c1.282-3.948,4.962-6.613,9.111-6.613c0.019,0,0.048,0,0.067,0l34.214,0.273l10.322-32.616C489.476,7.708,493.174,5,497.342,5
	s7.872,2.708,9.116,6.685l10.317,32.616l34.195-0.273c0.019,0,0.072,0,0.091,0c4.13,0,7.833,2.665,9.087,6.613
	c1.297,3.976-0.115,8.312-3.517,10.748l-27.811,19.897l10.829,32.458c1.306,3.953-0.096,8.312-3.45,10.767
	C534.514,125.735,532.528,126.352,530.556,126.352L530.556,126.352z"/>
	</g>
<path class="star-5" fill="none" d="M673.57,126.352
	c-2.01,0-4-0.636-5.69-1.881l-27.515-20.323l-27.52,20.323c-1.694,1.244-3.689,1.881-5.69,1.881c-1.971,0-3.943-0.617-5.623-1.842
	c-3.383-2.445-4.785-6.805-3.46-10.767l10.815-32.458l-27.826-19.897c-3.397-2.436-4.828-6.776-3.541-10.748
	c1.282-3.948,4.962-6.613,9.111-6.613c0.019,0,0.048,0,0.067,0l34.214,0.273l10.322-32.616C632.489,7.708,636.188,5,640.356,5
	s7.872,2.708,9.116,6.685l10.317,32.616l34.195-0.273c0.019,0,0.072,0,0.091,0c4.13,0,7.833,2.665,9.087,6.613
	c1.297,3.976-0.115,8.312-3.517,10.748l-27.811,19.897l10.829,32.458c1.306,3.953-0.096,8.312-3.45,10.767
	C677.527,125.735,675.541,126.352,673.57,126.352L673.57,126.352z"/>
</svg>
